<?xml version="1.0" standalone="no"?>
<!DOCTYPE svg PUBLIC "-//W3C//DTD SVG 20010904//EN"
 "http://www.w3.org/TR/2001/REC-SVG-20010904/DTD/svg10.dtd">
<svg version="1.0" xmlns="http://www.w3.org/2000/svg"
 width="1024.000000pt" height="1024.000000pt" viewBox="0 0 1024.000000 1024.000000"
 preserveAspectRatio="xMidYMid meet">
<metadata>
Created by potrace 1.11, written by Peter Selinger 2001-2013
</metadata>
<g transform="translate(0.000000,1024.000000) scale(0.100000,-0.100000)"
fill="#000000" stroke="none">
<path d="M4850 9466 c-3 -2 -47 -7 -99 -11 -51 -4 -101 -8 -111 -10 -10 -2
-47 -6 -82 -10 -144 -14 -526 -92 -572 -117 -12 -6 -23 -11 -26 -10 -22 6
-414 -125 -472 -158 -10 -6 -22 -10 -28 -10 -23 0 -355 -161 -475 -230 -48
-28 -89 -50 -91 -50 -3 0 -82 -51 -177 -114 -144 -95 -204 -138 -352 -253
-126 -99 -404 -369 -527 -513 -188 -220 -301 -382 -499 -714 -26 -43 -172
-336 -212 -426 -115 -259 -246 -690 -283 -935 -3 -22 -7 -42 -9 -45 -3 -5 -27
-180 -39 -280 -31 -261 -26 -743 9 -980 2 -14 6 -47 10 -75 3 -27 12 -86 20
-130 8 -44 17 -96 20 -115 28 -165 140 -539 223 -745 105 -260 244 -531 383
-750 68 -106 160 -242 174 -258 6 -7 33 -41 60 -77 131 -174 401 -461 564
-600 35 -30 69 -60 75 -66 35 -33 276 -210 376 -275 247 -162 542 -317 800
-421 164 -66 470 -164 605 -193 33 -7 94 -21 135 -30 41 -9 86 -17 100 -19 14
-2 57 -9 95 -15 39 -5 93 -13 120 -16 28 -4 61 -8 75 -10 29 -5 122 -13 225
-20 89 -6 431 -6 510 0 88 6 245 22 310 31 42 5 211 31 255 39 126 22 411 99
575 155 84 29 318 121 354 140 9 5 87 43 174 85 315 151 657 375 932 609 106
90 379 368 468 476 489 594 818 1292 952 2020 3 14 7 36 10 50 2 13 7 42 10
65 4 22 8 51 10 65 2 14 6 48 10 75 3 28 7 66 9 85 26 213 26 739 1 890 -2 14
-7 50 -10 80 -12 112 -43 294 -69 405 -2 11 -9 43 -16 70 -110 495 -380 1088
-697 1533 -490 689 -1177 1219 -1973 1522 -47 17 -94 36 -105 40 -71 30 -383
121 -465 136 -14 3 -50 11 -80 19 -78 20 -205 42 -275 50 -33 3 -69 8 -80 10
-11 2 -49 7 -85 10 -36 4 -76 9 -90 12 -31 7 -644 15 -650 9z m450 -620 c175
-8 257 -16 467 -51 72 -11 210 -43 318 -72 98 -26 354 -111 370 -123 6 -3 33
-15 60 -24 140 -50 578 -284 710 -380 11 -8 54 -39 95 -68 41 -30 84 -61 95
-70 401 -326 669 -631 903 -1028 239 -407 387 -803 477 -1285 50 -272 65 -757
30 -1030 -2 -16 -6 -55 -10 -85 -3 -30 -10 -77 -15 -105 -13 -68 -19 -104 -26
-145 -3 -19 -7 -43 -10 -52 -3 -9 -6 -25 -8 -35 -20 -100 -138 -484 -156 -508
-4 -5 -11 -21 -15 -35 -10 -32 -87 -207 -126 -283 -78 -155 -207 -370 -293
-488 l-44 -61 -12 59 c-6 32 -24 108 -40 168 -137 522 -354 894 -650 1115
-100 76 -306 176 -397 195 -10 2 -48 10 -84 19 -65 15 -138 24 -246 30 -45 3
-56 -1 -80 -24 -280 -270 -687 -487 -1030 -550 -59 -10 -91 -16 -140 -25 -140
-24 -509 -25 -640 -1 -18 3 -48 8 -65 12 -146 24 -364 87 -468 135 -177 82
-330 172 -455 268 -65 50 -63 48 -126 106 -81 74 -97 83 -137 80 -20 -2 -68
-6 -107 -10 -574 -51 -986 -443 -1220 -1160 -35 -108 -83 -285 -90 -335 -14
-92 -14 -92 -97 31 -203 302 -365 629 -465 939 -21 64 -79 275 -88 320 -14 68
-35 173 -41 210 -4 25 -8 47 -9 50 -1 3 -4 34 -9 70 -4 36 -9 79 -11 95 -25
203 -25 613 1 820 14 113 27 200 45 290 11 55 23 111 25 125 21 110 100 365
164 526 74 185 146 332 274 558 30 52 110 176 175 270 172 248 479 566 730
756 18 14 45 35 59 46 50 40 297 200 389 253 169 96 458 227 643 293 61 22
282 87 320 94 13 3 60 13 105 24 44 10 127 26 185 35 188 30 228 34 430 41 91
4 167 8 168 10 2 1 9 1 15 -1 7 -2 77 -6 157 -9z"/>
<path d="M4930 7913 c-22 -3 -156 -25 -243 -40 -46 -7 -177 -49 -262 -83 -479
-190 -893 -619 -1064 -1103 -30 -86 -64 -218 -75 -292 -4 -23 -8 -51 -11 -63
-16 -87 -22 -324 -11 -452 16 -171 62 -374 115 -505 114 -278 274 -501 525
-730 111 -101 295 -220 451 -292 142 -65 354 -126 480 -139 22 -2 69 -8 105
-12 91 -11 306 -7 425 7 457 56 848 270 1173 641 128 147 271 382 327 540 26
71 73 233 79 271 3 19 8 43 10 55 2 12 7 43 10 70 3 27 8 69 11 94 8 67 8 263
0 360 -21 261 -124 573 -257 785 -193 304 -485 568 -798 720 -104 51 -290 115
-372 129 -50 9 -88 16 -148 27 -52 11 -416 20 -470 12z"/>
</g>
</svg>
